<?xml version="1.0" encoding="UTF-8"?>
<svg id="uuid-4c690865-2cf9-4829-93fa-414f0a110d44" data-name="Ebene 1" xmlns="http://www.w3.org/2000/svg" viewBox="0 0 330.25 407.37">
  <defs>
    <style>
      .uuid-be39ca09-d921-4ba0-8e0c-8b781cb0af23 {
        fill: #e2001a;
        stroke: #e2001a;
        stroke-width: 2.28px;
      }

      .uuid-14841e6f-88c4-4076-a646-9b3f5731f5fd {
        fill: #007cc2;
        stroke-width: 7.27px;
      }

      .uuid-14841e6f-88c4-4076-a646-9b3f5731f5fd, .uuid-abd69888-b29a-42d5-aa25-5d9f093d661b {
        stroke: #1a171b;
        stroke-miterlimit: 3.86;
      }

      .uuid-abd69888-b29a-42d5-aa25-5d9f093d661b {
        stroke-width: 2.55px;
      }

      .uuid-abd69888-b29a-42d5-aa25-5d9f093d661b, .uuid-86887e2d-a1db-45da-95a0-e48a41d85bdb {
        fill: #1a171b;
      }

      .uuid-8dead53d-55b0-44c3-b178-bb5ec595de22 {
        fill-rule: evenodd;
      }

      .uuid-8dead53d-55b0-44c3-b178-bb5ec595de22, .uuid-86887e2d-a1db-45da-95a0-e48a41d85bdb, .uuid-f5cb0fbd-69dd-48af-a4d1-b4b49625798a {
        stroke-width: 0px;
      }

      .uuid-8dead53d-55b0-44c3-b178-bb5ec595de22, .uuid-f5cb0fbd-69dd-48af-a4d1-b4b49625798a {
        fill: #fff;
      }
    </style>
  </defs>
  <polygon class="uuid-14841e6f-88c4-4076-a646-9b3f5731f5fd" points="3.64 3.64 326.61 3.64 326.61 403.73 3.64 403.73 3.64 3.64 3.64 3.64"/>
  <path class="uuid-abd69888-b29a-42d5-aa25-5d9f093d661b" d="m47.45,139.05c7.62-2.71,12.37-3.55,20.07-6.18,5.67-1.95,15.5-2.29,13.46-8.05-2.03-5.76-5.34-8.05-9.99-12.03-6.27-5.42-10.39-8.86-13.72-16.43-6.19-14.08-13.2-24.62-14.15-38.54-.55-8.02,22.2.62,32.02,7.06,11.01,7.28,16.33,11.47,28.18,17.4,5.84,2.97,11.03,9.75,13.4,6.09,1.91-2.95-5.68-17.5-7.03-21.39-3.05-8.98-2.94-14.11-1.59-23.6,1.1-7.71,5.14-11.87,3.53-19.4-.68-2.88-1.18-9.27,2.37-10.79,5.93-2.54,17.79,3.4,23.12,6.71,10.84,6.61,13.72,14.4,21.68,24.39,3.73,4.74,4.57,11.86,10.41,11.1,6.1-.85,8.93-3.95,14.4-6.95,15.36-8.41,11.48-22.28,35.86-27.01,6-1.17,7.28,16.04,6.09,19.93-1.95,6.35-4.07,9.82-4.91,16.43-.76,6.01.84,9.66-.26,15.67-.84,4.41-3.13,7.2-2.03,11.52,11.77-3.93,17.03-8.91,29.48-9.16,7.28-.17,12.53.69,19.47,3.06,5.67,1.95,11.09,2.29,13.21,7.79,3.65,9.57-9.74,13.47-18.38,19.06-9.74,6.35-12.92,12.17-28.53,18.57,4.81,2.43,11.42,3.45,16.16,5.31,12.12,4.66,20.83,6.48,33.53,9.36,9.58,2.12,13.05,3.34,21.35,8.26,5.76,3.39,13.64,6.23,11.69,12.7-3.66,12.09-13.5,6.61-21.37,9.58-8.13,3.05-10.39,6.6-18.94,8.04-18.54,3.13-29.22,3.98-47.93,7.79l39.29,36.59c6.56,10.67,3.96,15.89-2.98,17.92-9.15,2.54-25.76-2.09-30.42-3.53-13.21-4.07-30.36-4.08-43.07-9.84-.31,2.27.21,7.03.21,7.03,0,0,4.66,17.89-.76,26.79-2.12,3.47-6.78,1.36-10.33-.51-6.27-3.22-8.55-9.16-14.22-13.48-6.94,5.93-10.25,12.55-12.37,21.27-2.03,8.47-2.46,16.85-10.67,19.82-13.4,4.83-13.38-16.6-15.16-29.05-.93-6.52-4.06-10.16-3.56-16.77-6.1,3.56-10.99,2.44-17.62,4.74-10.45,2.17-17.05,8.27-27.88,10.26-23.9,4.4-8.76-16.37-6.73-19.92,10.58-18.55,16.16-39.39,23.83-48.39-6.52-6.52-11.21-3.69-20.11-5.81-9.32-2.2-13.97-5.5-22.87-8.98-7.45-2.88-12.62-2.12-20.41-3.81-9.06-1.95-19.82-5.25-19.22-14.66.38-5.89,20.39-11.11,34.36-15.93h0Z"/>
  <path class="uuid-f5cb0fbd-69dd-48af-a4d1-b4b49625798a" d="m168.66,68.34c3.35-6.21,5.94-10.07,11.97-13.32.08-.05.2-.1.34-.15l.6-.23c.49-.18,1.09-.41,1.79-.69,1.42-.58,3.23-1.41,5.21-2.67,3.98-2.52,8.63-6.73,12.31-13.95,1.17-2.3,12.17-11.73,16.84-11.38,3.74.28,5.2,3.58,5,8.63-.2,4.94-2.04,10.86-4.11,14.91-1.6,3.15-1.67,6.02-1.57,8.81.05,1.36.14,2.74.12,4.17-.02,1.4-.15,2.84-.54,4.37-.91,3.6-1.25,6.14-1.94,8.51-.66,2.26-1.66,4.36-3.95,7.22-.81,1-1.98,2.12-3.04,3.28-1.07,1.17-2.16,2.52-2.62,3.88-1.06,3.33-12.08,7.97-16.01,7.59-4.5-.43-4.73-2.63-2.62-6.79,1.05-2.07,2.62-4.41,4.3-6.81,1.7-2.42,3.48-4.85,4.89-7.09,7.6-11.99,10.04-19.46,11.91-26.32.21-.77,1.88-7.57,1.88-7.57,0,0-2.75,2.58-3.37,3.21-1.29,1.3-3.02,5.07-5.27,7.74-4.47,5.3-10.11,13.05-15.08,19.4-3.35,4.29-5.7,6.74-8.31,9.4-1.96,2-4.93,2.58-5.55,3.15-5.98-1.07-6.46-11.08-3.17-17.28h0Z"/>
  <path class="uuid-f5cb0fbd-69dd-48af-a4d1-b4b49625798a" d="m188.92,105.55c1.59-.85,3.78-1.49,6.23-2.06,2.46-.57,5.08-1.05,7.42-1.62,2.34-.57,4.55-1.25,6.05-2.27.95-.64,1.68-1.34,2.29-2.07.6-.7,1.08-1.45,1.57-2.18.94-1.43,1.8-2.7,3.37-3.75,5.39-3.69,11.86-6.42,18.13-7.94,5.32-1.26,17.47-3.06,21.98-2.23,4.55.81,8.54,1.15,12.19,2.09,3.33.86,6.01,1.03,8.8,3.96,3.26,3.43-8.78,9.08-13.92,11.7-2.7,1.38-5.44,2.72-8.17,4.38-2.76,1.68-5.53,3.69-8.24,6.41-2.76,2.76-5.92,3.41-9.43,3.95-1.8.28-3.62.52-5.43,1.01-1.86.5-3.73,1.26-5.55,2.57-5.66,4.12-24.24,8.13-32.97,7.7,1.41-1.1,3.31-2.28,5.55-3.56,3.13-1.79,6.77-3.71,10.24-5.78,6.82-4.06,13.62-9.01,14-15.12l.16-2.67-1.76,2.02c-6.14,7.04-24.77,13.78-34.88,14.18v-5.79c.07-1.12.83-2.06,2.4-2.91h0Z"/>
  <path class="uuid-f5cb0fbd-69dd-48af-a4d1-b4b49625798a" d="m239,132.26c7.35.99,16.57,3.63,25.01,5.94,5.23,1.45,10.13,2.09,14.92,3.02,4.72.92,9.25,2.11,13.86,4.64,2.08,1.12,4.16,1.88,6.15,2.49,1.96.61,4.05,2.99,5.8,3.64,10.45,3.87,9.59,8.87,5.73,10.45-3.58,2.72-11.23,2.07-12.73,2.2-1.53.13-3.13.37-4.85.84-2.36.64-4.46,1.47-6.43,2.36-1.92.87-3.73,1.8-5.54,2.64-3.57,1.67-7.09,2.99-11.72,2.99-5.53,0-9.74,1.04-13.88,2.26-4.07,1.2-8.12,2.61-13.42,3.42-3.96.62-8.79,1.21-12.82,1.2-2,0-3.75-.15-5.05-.49-1.35-.36-1.97-.85-2.17-1.32-.89-2.16.11-3.53,1.79-5.55.42-.51.85-1.02,1.26-1.57.43-.57.84-1.17,1.18-1.83.66-1.24,1.11-2.68,1.08-4.41,1.23-1.11,3.48-1.71,6.76-1.95,3.5-.26,7.84-.1,12.61,0,9.6.2,11.93.19,22.03-3.94,1.34-.9,11.11-2.44,11.11-2.44,0,0-5.61-1.45-7.09-1.68-2.1-.32-8.08-.25-12.31-.12-4.25.13-2.26.31-7.02.24-4.75-.07-9.24-.41-12.65-1.3-5.38-1.4-8.6-1.86-14.61-3.94-.32-2.43-.35-12.59.11-14.58.78-3.37,5.25-4.27,12.88-3.24h0Z"/>
  <path class="uuid-f5cb0fbd-69dd-48af-a4d1-b4b49625798a" d="m189.26,173.25c1.3-.63,2.95-.91,4.96-1.01,2.03-.1,4.29-.03,6.68-.01,9.04.07,17.46,11.4,21.13,18.15,3.52,6.47,8.5,9.5,13.75,12.15,2.59,1.3,5.27,2.53,7.94,4.07,2.63,1.51,5.23,3.31,7.68,5.76,2.75,2.75,5.15,4.77,7.34,6.94,2.15,2.13,4.09,4.4,5.99,7.7.88,1.47,1.66,3.01,1.93,4.43.26,1.37.06,2.51-.92,3.42-1.23,1.09-2.49,1.27-4.02,1.11-1.67-.18-3.47-.75-5.41-1-9.3-1.19-16.24-3.66-25.29-5.26-2.96-.51-9.11-1.39-15.26-2.61-6.2-1.23-12.18-2.77-14.98-4.53-1.75-1.11-3.43-2.06-5.03-3-1.56-.91-3.02-1.8-4.35-2.8-2.59-1.95-4.62-4.26-5.82-7.94-.58-1.75-.34-3.07.34-5.2.34-1.05.53-2.64,2.49-2.47,2.87.24,12.35,5.45,14.92,6.86,3.92,2.18,10.05,3.62,17.62,5.64,3.77,1,7.12,1.71,8.93,1.72.45,0,5.66.61,5.66.61,0,0-5.16-4.14-5.79-4.57-4.07-2.73-11.92-4.5-18.19-7.59-3.14-1.54-5.13-4.65-7.63-5.94-2.51-1.3-15.61-10.04-16.84-11.27-1.47-1.47-1.77-3.31-1.63-6.37.3-6.63,1.4-5.79,3.78-6.96h0Z"/>
  <path class="uuid-f5cb0fbd-69dd-48af-a4d1-b4b49625798a" d="m182.35,219.25c1.19,2.96,2.03,6.81,3.08,10.79,2.26,8.45,3.36,13.39,2.94,22.03-.17,2.88.33,5.23-2.22,6.2-1.94.75-7.27-4.41-7.79-5.39-.52-.99-8.4-7.54-9.32-9.34-.16-.32,2.27-4.47,2.71-5.24.44-.79.94-1.63,1.39-2.51.46-.9.89-1.88,1.13-2.93.4-1.72.54-3.16.55-4.49.01-1.31-.11-2.5-.23-3.76-.23-2.33-.47-4.82.1-8.67l3.37-1.65c1.85.49,3.17,2.17,4.29,4.96h0Z"/>
  <path class="uuid-f5cb0fbd-69dd-48af-a4d1-b4b49625798a" d="m166,231.77c-1.84,3.07-3.13,6.26-5.09,10.18-1.64,3.28-1.59,3.82-3.66,7.16-1.74,2.82-3.99,8.27-4.66,11.44-1.33,6.28-2.74,12.37-6.3,18.41-1.36,2.21-7.42,5.92-10.08,1.53-.74-1.21-2.41-9.18-3.62-17.95-1.18-8.52-4.12-18.55-4.25-19.44-.28-2.53-2.52-6.42-2-8.71.53-2.35,2.2-9.41,6-13.96,3.41-4.09,7.32-4.74,11.15-7.89,3.23,3.33,2.1,13.57.53,22.9-.8,4.75-1.63,8.94-1.78,11.23-.04.59,0,7.85,0,7.85,0,0,3.49-6.74,3.99-7.46,3.73-5.48,5.09-13.05,7.53-19.26,1.86-4.75,2.91-9.37,3.34-14.16,1.83-.69,10.42-1.09,10.48,7.64.03,4.08.21,7.53-1.57,10.5h0Z"/>
  <path class="uuid-f5cb0fbd-69dd-48af-a4d1-b4b49625798a" d="m124.92,175.52c.06.59.01,1.22-.13,2.06-.29,1.69-.95,3.93-1.73,6.24-1.61,4.71-3.75,9.66-4.67,11.13-1.48,2.33-4.23,5.63-6.6,9.38-2.4,3.79-7.22,17.42-7.22,17.42,0,0,9.29-10.29,10.47-11.74,2.39-2.95,3.38-2.24,6.73-7.54,5.71-9.03,11.79-19.57,14.68-25.08.98,7.67-.43,25.08-1.19,30.09-.28,1.82-1.18,2.61-2.52,3.4-.73.44-1.53.84-2.34,1.36-.85.54-1.73,1.22-2.54,2.18-1.42,1.65-2.36,3.46-3.09,5.26-.72,1.76-1.25,3.54-1.87,5.21-1.19,3.24-2.07,10.08-2.54,10.72-2.08,2.77-14.47,1.58-21.63,6.75-3.35,2.42-7.71,3.81-12.73,4.95-1.21.29-2.36.73-3.46,1.2-1.03.44-2.02.9-2.99,1.24-1.85.66-3.4.8-5.05-.29-2.62-1.65-2.82-5.26-1.2-8.49,1.08-2.2,2.4-3.74,3.87-5.27.75-.78,1.52-1.55,2.3-2.39.8-.86,1.6-1.8,2.39-2.89,4.73-6.75,5.61-12.78,9.54-20.72,2.2-4.45,8.81-16.83,10.12-18.62.6-.84,1.1-1.8,1.55-2.8.44-.99.86-2.06,1.3-3.16.87-2.17,1.79-4.34,3.18-6.15,2.66-3.46,7.23-5.89,17.37-3.48h0Z"/>
  <path class="uuid-f5cb0fbd-69dd-48af-a4d1-b4b49625798a" d="m22.41,152.74c4.51-1.19,7-2.99,11.13-3.75,5.31-1.03,27.9-7.36,32.48-9.5,4.52-2.11,9.61-1.94,15.61-3.66,6.35-1.78,13.59-.28,14.61,5.22,1.04,5.74.34,10.31-6.05,9.31-7.54-1.19-13.96-.62-20.39.44-6.36,1.05-12.78,2.59-20.43,3.4l-1.62.17,1,1.29c2.09,2.69,9.56,2.82,16.39,2.89,3.57.04,7.23.04,10.41.25,3.2.21,5.73.61,7.18,1.37,1.86.96,3.7,1.44,5.37,1.72,1.62.28,3.1.37,4.31.54,2.16.3,8.1.95,5.82,11.87-1.09,5.23-9.63,3.46-14.99,2.5-5.3-.94-10.61-1.93-11.89-2.11-1.17-.15-12.05-5.12-18.2-7.08-6.1-1.95-12.37-3.42-16.34-3.42-3.14,0-9.16-1.8-12-1.73-2.68.07-4.21-1.02-6.34-2.77-3.37-2.77,1.7-6.36,3.95-6.95h0Z"/>
  <path class="uuid-8dead53d-55b0-44c3-b178-bb5ec595de22" d="m134.85,122.86c-.27-.17-.62-.44-1.06-.8-1.32-1.09-3.14-2.81-5.28-4.76-4.3-3.92-10.01-8.89-15.71-11.63-2.83-1.36-16.83-5.77-31.29-13.09l-3.32-1.68,2.17,3.03c5.42,7.56,11.22,12.34,17.26,16.26,5.83,3.78,11.9,6.76,18.14,10.7-.15,1.03-.8,1.61-1.95,1.96-1.42.44-3.42.45-5.68.3-2.26-.15-4.63-.45-6.63-.54-1.91-.09-3.93-.04-5.06.87-2.04,1.65-7.24,2.06-8.36.4-2.23-3.3-4.69-5.84-7.18-8.01-2.47-2.14-4.98-3.91-7.38-5.7-4.72-3.52-8.79-6.97-11.07-13.31-2.45-6.85-4.61-12.64-6.9-19.49-.93-2.71-2.68-5.98-3.69-9.08-1-3.08-1.1-5.52.53-7.15.57-.56,1.41-.73,2.69-.41,1.28.32,2.8,1.1,4.41,2.12,3.28,2.07,6.66,4.91,8.82,6.23,2.58,1.57,4.68,2.69,6.72,3.9,2,1.19,3.93,2.46,6.22,4.33,4.32,3.46,7.98,5.8,11.74,7.96,3.72,2.14,7.56,4.11,12.25,6.86,3.18,1.85,5.47,3.59,7.77,5.28,2.36,1.74,4.75,3.44,8.1,5.16,1.13.59,2.83,1.38,4.67,2.44,1.82,1.06,3.75,2.37,5.4,4.02,3.16,3.15,5.32,7.54,3.66,13.84h0Z"/>
  <path class="uuid-f5cb0fbd-69dd-48af-a4d1-b4b49625798a" d="m156.29,86.2c-.16-.14-.49-.52-.95-1.44-.37-.74-1.01-1.63-1.78-2.63-.77-1-1.73-2.18-2.78-3.51-2.07-2.63-6.09-5.51-8.25-9.32-1.77-3.12-3.13-6.84-6.02-9.63-4.88-4.73-3.95-7.9-5.83-10.15-.67-.8-1.4-5.65-2.07-4.74-.49.67-.09,6.36-.13,7.42-.08,2.21.36,5.43,1.06,8.93,1.42,7,4,15.43,6.04,19.62,2.24,4.64,1.95,8.71,1.12,12.61-.43,2-.99,3.91-1.42,5.79-.28,1.23-.51,2.47-.61,3.72-12.5-7.05-10.97-15.16-13.4-20.14-1.29-2.64-8.36-18.94-8.38-20.94-.02-2.11-.82-11.62-.48-13.76.35-2.17.94-4.54,1.56-7.18,1.26-5.36,2.68-11.93,2.56-20.42-.05-3.44,2.83-4.3,7.99-2.52,4.85,1.67,10.37,5.41,12.98,9,2.52,3.53,9.98,8.26,16.65,20.89,3.17,6,10.77,10.43,10.39,13.15-.41,2.88-2.46,5.75-3.58,9.01-1.11,3.25-1.92,6.77-2.62,9.76-.72,3.05-1.3,5.3-1.91,6.27l-.15.21h0Z"/>
  <polygon class="uuid-be39ca09-d921-4ba0-8e0c-8b781cb0af23" points="179.63 90.89 179.63 130.19 218.82 130.19 218.82 167.64 179.63 167.64 179.63 207.59 142.18 207.59 142.18 167.64 102.13 167.64 102.13 130.19 142.18 130.19 142.18 90.89 179.63 90.89 179.63 90.89"/>
  <path class="uuid-86887e2d-a1db-45da-95a0-e48a41d85bdb" d="m276,293.48h51.85v20.79h-1.24s0,88.86,0,88.86H3.93v-99.45l.07-10.2h26.61c3.1,0,6.45.33,9.37,1.54v-1.54h54.51c5.44.1,10.52,1.11,13.91,4.44,4.44-3.93,11.01-4.71,17.24-4.71,2.42,0,4.67.02,6.68.2.57.05,1.16.13,1.77.22l22.51-.15h63.88l2.5,8.23c3.92-7.27,12.25-8.5,20.16-8.5,4.29,0,8.47.3,11.91,1.78v-1.51h20.94Z"/>
  <path class="uuid-8dead53d-55b0-44c3-b178-bb5ec595de22" d="m7.48,397.77h28.83c11.52,0,17.75-1.81,17.75-15.14,0-6.81-1.38-11.66-9.42-12.17v-.58c7.17-1.16,8.55-5.65,8.55-12.53,0-11.88-6.38-13.91-17.17-13.91H7.48v54.34h0Zm14.49-42.46h12.17c4.06.15,4.57,1.38,4.57,4.63,0,4.35-1.23,5.22-6.3,5.22h-10.43v-9.85h0Zm0,19.92h11.23c4.71,0,6.37.65,6.37,5.14s-1.96,5.51-6.67,5.51h-10.94v-10.65h0Z"/>
  <path class="uuid-8dead53d-55b0-44c3-b178-bb5ec595de22" d="m92.97,388.43l2.83,9.34h14.78l-16.52-54.34h-22.02l-16.3,54.34h15.07l2.68-9.34h19.49Zm-2.9-10.58h-13.47l6.59-23.55h.14l6.74,23.55h0Z"/>
  <polygon class="uuid-f5cb0fbd-69dd-48af-a4d1-b4b49625798a" points="155.45 343.43 138.64 343.43 128.65 364.37 128.14 364.37 118.43 343.43 101.84 343.43 121.11 378.72 121.11 397.77 135.6 397.77 135.6 378.72 155.45 343.43 155.45 343.43"/>
  <polygon class="uuid-f5cb0fbd-69dd-48af-a4d1-b4b49625798a" points="173.41 355.32 198.11 355.32 198.11 343.43 158.92 343.43 158.92 397.77 198.62 397.77 198.62 385.89 173.41 385.89 173.41 375.31 196.59 375.31 196.59 365.24 173.41 365.24 173.41 355.32 173.41 355.32"/>
  <path class="uuid-8dead53d-55b0-44c3-b178-bb5ec595de22" d="m222.03,370.75v-14.71h11.23c4.78,0,6.01,1.37,6.01,6.23,0,6.16.22,8.48-6.01,8.48h-11.23Zm-14.49,27.02h14.49v-14.42h11.23c4.34,0,6.08,2.75,5.94,6.81v7.61h14.49v-10.94c0-6.16-3.84-9.42-9.78-9.63v-.58c10.29-2.39,10.29-7.68,10.29-16.73,0-13.55-6.16-16.23-18.69-16.45h-27.97v54.34h0Z"/>
  <polygon class="uuid-f5cb0fbd-69dd-48af-a4d1-b4b49625798a" points="275.2 356.04 275.78 356.04 291.14 397.77 315.85 397.77 315.85 343.43 301.36 343.43 302.23 385.16 301.64 385.16 286.07 343.43 261.58 343.43 261.58 397.77 276.08 397.77 275.2 356.04 275.2 356.04"/>
  <path class="uuid-8dead53d-55b0-44c3-b178-bb5ec595de22" d="m7.92,334.77h18.49c7.39,0,11.38-1.16,11.38-9.71,0-4.37-.88-7.48-6.04-7.81v-.37c4.6-.74,5.48-3.62,5.48-8.04,0-7.62-4.09-8.92-11.01-8.92H7.92v34.85h0Zm9.29-27.23h7.81c2.6.09,2.93.88,2.93,2.97,0,2.79-.79,3.35-4.04,3.35h-6.69v-6.32h0Zm0,12.78h7.2c3.02,0,4.09.42,4.09,3.3s-1.25,3.53-4.27,3.53h-7.02v-6.83h0Z"/>
  <polygon class="uuid-f5cb0fbd-69dd-48af-a4d1-b4b49625798a" points="51.69 307.55 67.54 307.55 67.54 299.92 42.4 299.92 42.4 334.77 67.86 334.77 67.86 327.15 51.69 327.15 51.69 320.37 66.56 320.37 66.56 313.91 51.69 313.91 51.69 307.55 51.69 307.55"/>
  <path class="uuid-8dead53d-55b0-44c3-b178-bb5ec595de22" d="m82.87,317.44v-9.43h7.2c3.07,0,3.86.88,3.86,3.99,0,3.95.14,5.44-3.86,5.44h-7.2Zm-9.29,17.33h9.29v-9.25h7.2c2.79,0,3.9,1.77,3.81,4.37v4.88h9.29v-7.01c0-3.95-2.46-6.04-6.27-6.18v-.37c6.6-1.53,6.6-4.92,6.6-10.73,0-8.69-3.95-10.41-11.99-10.55h-17.94v34.85h0Z"/>
  <path class="uuid-f5cb0fbd-69dd-48af-a4d1-b4b49625798a" d="m138.86,310.75c0-11.06-6.41-11.1-15.42-11.1-10.22,0-16.54,1.72-16.54,13.24v9.01c0,11.29,5.58,13.15,16.54,13.15,12.45,0,15.42-2.13,15.42-13.89v-6.09h-15.84v6.46h6.41c0,4.84-1.25,5.9-5.99,5.9s-6.97-.65-6.97-6.83v-5.67c.09-5.62.28-7.67,6.97-7.67,2.79,0,5.81-.05,5.99,3.49h9.43Z"/>
  <polygon class="uuid-f5cb0fbd-69dd-48af-a4d1-b4b49625798a" points="177.75 326.78 177.43 326.78 171.2 299.92 161.54 299.92 154.99 326.78 154.66 326.78 149.64 299.92 140.21 299.92 147.74 334.77 161.03 334.77 166.09 312.93 166.46 312.93 171.2 334.77 184.63 334.77 192.34 299.92 183 299.92 177.75 326.78 177.75 326.78"/>
  <path class="uuid-8dead53d-55b0-44c3-b178-bb5ec595de22" d="m214.87,328.78l1.81,5.99h9.48l-10.59-34.85h-14.12l-10.46,34.85h9.67l1.72-5.99h12.5Zm-1.86-6.79h-8.64l4.23-15.1h.09l4.32,15.1h0Z"/>
  <path class="uuid-f5cb0fbd-69dd-48af-a4d1-b4b49625798a" d="m248.33,321.58v1.02c0,4.09-1.86,4.37-5.72,4.37-5.57,0-5.81-2-5.81-7.2v-5.44c0-4.97.51-6.6,5.81-6.6,3.16,0,5.35.23,5.67,3.35v1.35h9.57v-1.35c-.18-10.46-4.65-11.43-14.22-11.43-10.22,0-16.4,1.67-16.4,13.19v9.02c0,12.73,6.92,13.19,16.4,13.19,4.05,0,7.91.05,11.06-2.55,3.16-2.65,3.21-6.09,3.21-9.9v-1.02h-9.57Z"/>
  <polygon class="uuid-f5cb0fbd-69dd-48af-a4d1-b4b49625798a" points="293.12 299.92 283.82 299.92 283.82 313.03 271.7 313.03 271.7 299.92 262.41 299.92 262.41 334.77 271.7 334.77 271.7 321.11 283.82 321.11 283.82 334.77 293.12 334.77 293.12 299.92 293.12 299.92"/>
  <polygon class="uuid-f5cb0fbd-69dd-48af-a4d1-b4b49625798a" points="314.3 308.01 323.69 308.01 323.69 299.92 296.09 299.92 296.09 308.01 305.01 308.01 305.01 334.77 314.3 334.77 314.3 308.01 314.3 308.01"/>
</svg>