<?xml version="1.0" encoding="UTF-8" standalone="no"?>
<svg
   width="135.66000000000003mm"
   height="69.7141216943894mm"
   viewBox="0 0 135.66000000000003 69.7141216943894"
   version="1.1"
   id="svg3"
   sodipodi:docname="car_sketch.svg"
   inkscape:export-filename="car.png"
   inkscape:export-xdpi="96"
   inkscape:export-ydpi="96"
   inkscape:version="1.3.2 (091e20e, 2023-11-25, custom)"
   xmlns:inkscape="http://www.inkscape.org/namespaces/inkscape"
   xmlns:sodipodi="http://sodipodi.sourceforge.net/DTD/sodipodi-0.dtd"
   xmlns="http://www.w3.org/2000/svg"
   xmlns:svg="http://www.w3.org/2000/svg">
  <defs
     id="defs3" />
  <sodipodi:namedview
     id="namedview3"
     pagecolor="#505050"
     bordercolor="#eeeeee"
     borderopacity="1"
     inkscape:showpageshadow="0"
     inkscape:pageopacity="0"
     inkscape:pagecheckerboard="0"
     inkscape:deskcolor="#505050"
     inkscape:document-units="mm"
     inkscape:zoom="2.2760485"
     inkscape:cx="256.36536"
     inkscape:cy="131.5877"
     inkscape:window-width="1920"
     inkscape:window-height="991"
     inkscape:window-x="-9"
     inkscape:window-y="-9"
     inkscape:window-maximized="1"
     inkscape:current-layer="svg3" />
  <g
     id="Sketch003"
     transform="translate(-1.670000,103.830000) scale(1,-1)">
    <circle
       cx="31.0"
       cy="48.5"
       r="13.15"
       stroke="#000000"
       stroke-width="0.35 px"
       style="stroke-width:7;stroke-miterlimit:4;stroke-dasharray:none;stroke-linecap:round;fill:none;stroke-linejoin:round"
       id="circle1" />
    <circle
       cx="109.3"
       cy="48.5"
       r="13.15"
       stroke="#000000"
       stroke-width="0.35 px"
       style="stroke-width:7;stroke-miterlimit:4;stroke-dasharray:none;stroke-linecap:round;fill:none;stroke-linejoin:round"
       id="circle2" />
    <title
       id="title2">b'car_sketch001'</title>
  </g>
  <g
     id="Sketch002"
     transform="translate(-1.670000,103.830000) scale(1,-1)">
    <path
       id="Sketch002_w0000"
       d="M 122.45 48.50000000000007 L 127.5 48.50000000000007 A 8.5 8.5 0 0 1 136 57L 136.0 66.00000000000007 A 8.5 8.5 0 0 1 129.843 74.1707L 105.7046719867552 81.09225494372131 L 92.69671290615663 98.99617464448602 A 8.5 8.5 0 0 1 85.8201 102.5L 38.32006845396958 102.5 A 8.5 8.5 0 0 1 31.1117 98.5043L 18.783438219643855 78.77503533069999 L 7.907744775204056 73.7036161898116 A 8.5 8.5 0 0 1 3 66L 3.0 57.0 A 8.5 8.5 0 0 1 11.5 48.5L 17.85 48.5 "
       stroke="#000000"
       stroke-width="0.35 px"
       style="stroke-width:7;stroke-miterlimit:4;stroke-dasharray:none;stroke-linecap:round;fill:none;fill-opacity:1;fill-rule:evenodd;stroke-linejoin:round" />
    <path
       id="Sketch002_w0001"
       d="M 44.15 48.5 L 96.15 48.5 "
       stroke="#000000"
       stroke-width="0.35 px"
       style="stroke-width:7;stroke-miterlimit:4;stroke-dasharray:none;stroke-linecap:round;fill:none;fill-opacity:1;fill-rule:evenodd;stroke-linejoin:round" />
    <title
       id="title3">b'car_sketch'</title>
  </g>
</svg>
