<svg version="1.2" xmlns="http://www.w3.org/2000/svg" viewBox="0 0 26 26" width="26" height="26">
	<title>drafting-compass_7931051-svg</title>
	<style>
		.s0 { fill: #000000 } 
	</style>
	<path id="Layer" fill-rule="evenodd" class="s0" d="m25.2 25.8q-0.4 0.2-0.8 0.2c-0.6 0-1.1-0.3-1.4-0.8l-4.1-6.8c-1.9 0.7-3.9 1.1-5.9 1.1-2 0-4-0.4-5.9-1.1l-4.1 6.8c-0.3 0.5-0.8 0.8-1.4 0.8q-0.4 0-0.8-0.2c-0.8-0.5-1-1.5-0.6-2.3l4-6.6q-0.7-0.4-1.4-1c-0.7-0.5-0.8-1.5-0.3-2.3 0.6-0.7 1.6-0.8 2.3-0.2q0.5 0.4 1 0.7l3.4-5.6c-0.3-0.6-0.5-1.3-0.5-2 0-1.8 1.1-3.4 2.7-4v-0.9c0-0.9 0.7-1.6 1.6-1.6 0.9 0 1.6 0.7 1.6 1.6v0.9c1.6 0.6 2.7 2.2 2.7 4 0 0.7-0.2 1.4-0.5 2l3.3 5.6q0.6-0.3 1.1-0.7c0.7-0.6 1.8-0.5 2.3 0.2 0.6 0.7 0.5 1.7-0.2 2.3q-0.7 0.5-1.5 1l4 6.6c0.4 0.8 0.2 1.8-0.6 2.3zm-10.6-19.3c0-0.9-0.7-1.6-1.6-1.6-0.9 0-1.6 0.7-1.6 1.6 0 0.9 0.7 1.6 1.6 1.6 0.9 0 1.6-0.7 1.6-1.6zm2.6 9l-2.9-4.9q-0.6 0.2-1.3 0.2-0.7 0-1.3-0.2l-2.9 4.9c2.7 1 5.7 1 8.4 0z"/>
</svg>