<svg width="491" height="445" viewBox="0 0 491 445" fill="none" xmlns="http://www.w3.org/2000/svg">
<path d="M57.39 204.601C69.599 200.264 77.1796 198.915 89.5343 194.688C98.6091 191.553 114.353 191.043 111.11 181.786C107.866 172.566 102.545 168.885 95.1104 162.507C85.0881 153.833 78.4551 148.293 73.1342 136.194C63.2212 113.634 51.9962 96.7605 50.4655 74.4562C49.5908 61.5912 86.0356 75.4402 101.743 85.7541C119.383 97.4165 127.911 104.122 146.898 113.634C156.265 118.372 164.574 129.269 168.364 123.402C171.426 118.664 159.253 95.3756 157.103 89.1435C152.219 74.7478 152.402 66.5477 154.552 51.3502C156.301 38.9954 162.788 32.326 160.201 20.2628C159.107 15.6343 158.306 5.42978 163.991 2.98798C173.503 -1.09384 192.491 8.4547 201.019 13.7392C218.367 24.3082 222.995 36.8088 235.751 52.808C241.728 60.3885 243.076 71.7958 252.443 70.5931C262.21 69.2446 266.765 64.2517 275.512 59.4774C300.112 45.9929 293.917 23.798 332.949 16.2174C342.571 14.3588 344.612 41.911 342.716 48.1431C339.582 58.3112 336.193 63.8872 334.844 74.4562C333.605 84.0777 336.193 89.9088 334.443 99.5667C333.095 106.637 329.414 111.083 331.2 118.008C350.042 111.703 358.497 103.758 378.432 103.321C390.095 103.065 398.513 104.414 409.629 108.241C418.704 111.375 427.414 111.885 430.803 120.705C436.635 136.048 415.205 142.28 401.356 151.245C385.758 161.414 380.655 170.743 355.654 180.984C363.344 184.884 373.95 186.524 381.53 189.476C400.919 196.947 414.877 199.863 435.25 204.455C450.593 207.844 456.133 209.812 469.435 217.684C478.655 223.115 491.302 227.67 488.168 238.02C482.3 257.373 466.556 248.626 453.946 253.364C440.935 258.247 437.327 263.933 423.624 266.229C393.921 271.258 376.829 272.607 346.835 278.693L409.775 337.296C420.271 354.389 416.116 362.735 405.001 366.015C390.35 370.096 363.745 362.662 356.274 360.366C335.099 353.842 307.656 353.842 287.284 344.585C286.81 348.23 287.612 355.847 287.612 355.847C287.612 355.847 295.083 384.492 286.409 398.742C283.02 404.318 275.549 400.929 269.863 397.94C259.841 392.802 256.16 383.253 247.085 376.365C235.97 385.877 230.649 396.446 227.259 410.441C224.016 423.998 223.323 437.446 210.167 442.184C188.701 449.911 188.737 415.58 185.894 395.644C184.4 385.185 179.371 379.353 180.209 368.784C170.442 374.47 162.606 372.684 152.001 376.401C135.273 379.864 124.704 389.631 107.356 392.838C69.0888 399.908 93.3246 366.634 96.5682 360.912C113.515 331.21 122.444 297.826 134.726 283.394C124.266 272.935 116.759 277.49 102.509 274.101C87.6028 270.566 80.1316 265.281 65.8817 259.705C53.9278 255.077 45.6548 256.316 33.1907 253.582C18.6857 250.448 1.44726 245.164 2.39483 230.112C2.97795 220.673 35.0494 212.327 57.4265 204.601H57.39Z" fill="black" stroke="black" stroke-width="3" stroke-miterlimit="3.86"/>
<path fill-rule="evenodd" clip-rule="evenodd" d="M230.212 117.68C230.977 119.137 231.487 119.757 231.742 119.976L231.815 120.012L232.07 119.684C233.054 118.117 233.965 114.509 235.132 109.625C235.233 109.198 235.335 108.764 235.439 108.324C236.494 103.844 237.697 98.7359 239.323 93.9905C240.045 91.8835 241.011 89.8778 241.949 87.93C243.332 85.0599 244.654 82.3156 245.045 79.5583C245.34 77.3632 242.367 74.4585 238.702 70.8774C235.126 67.3831 230.891 63.2448 228.389 58.4932C220.851 44.2139 212.677 36.2373 207.098 30.7934C204.775 28.526 202.901 26.6979 201.712 25.0369C197.521 19.2786 188.665 13.3017 180.902 10.6048C172.629 7.76208 168.037 9.14698 168.11 14.6501C168.292 28.2805 166.032 38.7766 163.991 47.3776C163.86 47.9247 163.731 48.4635 163.603 48.9944C162.734 52.6008 161.953 55.8444 161.477 58.8941C161.117 61.1464 161.561 68.5023 161.908 74.241C162.088 77.2311 162.242 79.7821 162.242 80.9432C162.279 84.1139 173.576 110.245 175.654 114.472C176.628 116.456 177.206 118.756 177.837 121.266C179.734 128.809 182.108 138.249 197.12 146.726C197.266 144.722 197.666 142.717 198.104 140.749C198.425 139.268 198.807 137.778 199.195 136.266C199.6 134.691 200.01 133.092 200.363 131.456C201.712 125.224 202.186 118.7 198.578 111.265C195.334 104.559 191.216 91.0749 188.92 79.8499C187.79 74.2738 187.061 69.0987 187.207 65.5635C187.227 65.0874 187.189 64.0116 187.143 62.6901C187.025 59.3586 186.851 54.4653 187.425 53.6825C188.052 52.818 188.73 55.1965 189.399 57.5416C189.858 59.1506 190.312 60.744 190.742 61.263C191.843 62.5922 192.34 64.1192 192.92 65.8968C193.913 68.9447 195.146 72.7295 200.072 77.5174C203.444 80.8095 205.519 84.8879 207.51 88.7998C208.229 90.2145 208.938 91.6075 209.693 92.9336C211.845 96.7163 215.151 99.9219 218.142 102.821C219.963 104.587 221.667 106.239 222.923 107.839C223.47 108.53 224.002 109.197 224.513 109.838C225.568 111.16 226.534 112.372 227.369 113.452C228.572 115.056 229.628 116.513 230.212 117.68ZM270.739 70.0105C261.081 75.1856 256.926 81.3812 251.569 91.3307V91.2578C246.284 101.207 247.049 117.243 256.634 118.956C256.969 118.646 257.741 118.337 258.737 117.937C260.673 117.16 263.458 116.044 265.527 113.926C269.718 109.662 273.472 105.726 278.829 98.8747C281.828 95.0542 284.976 90.9147 288.117 86.7848L288.119 86.7816L288.12 86.7809L288.122 86.7789L288.123 86.7776C293.339 79.9185 298.535 73.0865 302.992 67.7873C304.896 65.5378 306.566 62.7914 308.024 60.3933C309.33 58.2457 310.466 56.3775 311.447 55.3961C312.431 54.3756 316.841 50.2574 316.841 50.2574C316.841 50.2574 314.144 61.1544 313.816 62.3935C310.828 73.3998 306.928 85.3537 294.756 104.56C292.931 107.444 290.727 110.542 288.506 113.662C287.977 114.405 287.446 115.151 286.92 115.894C284.223 119.758 281.709 123.511 280.032 126.828C276.643 133.497 277.007 137.032 284.223 137.725C290.528 138.308 308.204 130.873 309.88 125.552C310.609 123.402 312.359 121.252 314.071 119.357C314.702 118.673 315.352 117.998 315.988 117.34C317.079 116.208 318.126 115.122 318.955 114.109C322.636 109.553 324.24 106.164 325.296 102.556C325.862 100.595 326.281 98.557 326.756 96.2491L326.756 96.2488C327.199 94.0945 327.691 91.7053 328.394 88.9253C329.014 86.4835 329.269 84.1875 329.269 81.9279C329.295 80.2759 329.227 78.6805 329.16 77.101L329.159 77.0974C329.133 76.4828 329.107 75.8707 329.087 75.2585C328.941 70.8123 329.05 66.2202 331.601 61.1544C334.954 54.6672 337.87 45.1916 338.198 37.283C338.526 29.1923 336.157 23.9078 330.18 23.4705C322.709 22.9238 305.07 38.0119 303.211 41.6929C297.307 53.2459 289.872 59.9881 283.494 64.0335C280.324 66.038 277.408 67.35 275.148 68.2976C274.408 68.584 273.731 68.8392 273.137 69.0631C272.823 69.181 272.533 69.2903 272.269 69.3909L271.285 69.7554C271.165 69.8156 271.056 69.8647 270.957 69.9089C270.877 69.9449 270.804 69.9777 270.739 70.0105ZM293.989 147.046C290.053 147.957 286.554 148.977 284.003 150.362L284.039 150.289C281.561 151.638 280.322 153.168 280.212 154.954V164.248C296.394 163.628 326.242 152.84 336.082 141.542L338.889 138.299L338.633 142.563C338.05 152.367 327.153 160.312 316.22 166.799C312.825 168.818 309.349 170.743 306.014 172.589L306.012 172.59L306.011 172.591L306.002 172.596C303.864 173.78 301.783 174.932 299.82 176.056C296.248 178.097 293.187 179.992 290.927 181.741C304.922 182.434 334.661 176.019 343.736 169.423C346.651 167.309 349.64 166.106 352.628 165.304C355.243 164.618 357.858 164.225 360.446 163.836L360.466 163.833C360.757 163.789 361.048 163.745 361.339 163.701C366.988 162.826 372.053 161.769 376.463 157.36C380.8 153.023 385.246 149.815 389.656 147.119C393.201 144.962 396.746 143.165 400.271 141.378C401.095 140.96 401.918 140.542 402.74 140.121C403.361 139.805 404.045 139.462 404.776 139.094C413.749 134.587 429.897 126.477 425.044 121.388C421.317 117.48 417.716 116.644 413.55 115.678C412.705 115.482 411.837 115.281 410.94 115.047C407.299 114.097 403.463 113.541 399.334 112.941L399.333 112.941L399.333 112.941C396.807 112.575 394.172 112.192 391.406 111.694C384.189 110.346 364.728 113.261 356.2 115.266C346.141 117.708 335.791 122.081 327.153 127.985C324.639 129.661 323.254 131.702 321.76 133.998C320.994 135.201 320.192 136.367 319.245 137.497C318.261 138.663 317.095 139.793 315.564 140.814C313.159 142.454 309.623 143.547 305.87 144.458C303.829 144.953 301.66 145.405 299.473 145.861L299.472 145.861L299.471 145.862L299.47 145.862L299.469 145.862L299.469 145.862L299.468 145.862L299.467 145.863C297.632 146.245 295.784 146.63 293.989 147.046ZM400.057 201.507L400.058 201.507C401.472 201.895 402.878 202.28 404.271 202.659C410.191 204.306 415.838 205.299 421.341 206.266L421.341 206.266C423.63 206.669 425.894 207.067 428.143 207.506C435.723 208.964 442.976 210.895 450.337 214.941C453.654 216.726 457.007 217.929 460.178 218.95C461.834 219.47 463.551 220.783 465.216 222.057C466.702 223.194 468.148 224.3 469.471 224.781C486.199 230.976 484.814 238.994 478.655 241.509C473.996 245.07 464.988 245.031 460.523 245.011H460.523H460.523H460.522H460.522H460.522H460.521H460.521C459.503 245.007 458.722 245.003 458.282 245.044C455.841 245.263 453.29 245.627 450.52 246.393C446.729 247.413 443.377 248.761 440.242 250.183C438.48 250.971 436.789 251.794 435.121 252.605C433.857 253.221 432.607 253.829 431.35 254.41C425.628 257.071 419.979 259.185 412.581 259.185C403.725 259.185 396.982 260.825 390.349 262.793C389.212 263.129 388.076 263.476 386.93 263.826L386.914 263.831L386.913 263.831L386.912 263.831L386.912 263.831C381.49 265.486 375.85 267.207 368.847 268.259C362.506 269.243 354.779 270.191 348.329 270.191C345.121 270.191 342.315 269.936 340.238 269.389C338.088 268.806 337.067 268.041 336.775 267.275C335.354 263.813 336.958 261.626 339.655 258.383L339.971 257.996L340.012 257.946C340.56 257.278 341.128 256.585 341.696 255.868C342.388 254.957 343.044 253.973 343.591 252.953C344.648 250.948 345.376 248.652 345.304 245.882C347.272 244.097 350.88 243.149 356.128 242.748C360.806 242.414 366.397 242.536 372.561 242.67L372.568 242.67L372.576 242.67C373.801 242.697 375.05 242.724 376.318 242.748C391.698 243.076 395.415 243.04 411.597 236.443C413.747 234.985 429.382 232.544 429.382 232.544C429.382 232.544 420.38 230.211 418.011 229.847C414.658 229.336 405.073 229.446 398.294 229.664C395.508 229.754 394.391 229.855 393.523 229.934C392.269 230.048 391.536 230.115 387.033 230.029C379.416 229.919 372.236 229.373 366.77 227.951C364.022 227.23 361.624 226.664 359.318 226.12L359.317 226.12C354.407 224.962 349.919 223.903 343.372 221.647C342.862 217.747 342.825 201.456 343.554 198.285C344.793 192.892 351.973 191.434 364.182 193.11L364.218 193.147C374.777 194.585 387.74 198.135 400.057 201.507ZM292.528 257.181C289.321 257.327 286.66 257.764 284.583 258.785L284.692 258.821C284.079 259.119 283.519 259.335 283.009 259.532C280.338 260.565 279.04 261.067 278.642 269.973C278.424 274.893 278.897 277.809 281.266 280.178C283.234 282.109 304.19 296.141 308.235 298.218C310.07 299.177 311.742 300.751 313.505 302.411L313.505 302.411C315.559 304.345 317.738 306.396 320.444 307.73C324.928 309.931 329.921 311.716 334.656 313.409C340.505 315.5 345.958 317.449 349.564 319.866C350.548 320.559 358.821 327.192 358.821 327.192C358.821 327.192 350.475 326.208 349.746 326.208C346.83 326.208 341.473 325.078 335.423 323.474C333.75 323.027 332.12 322.598 330.537 322.181C320.641 319.575 312.583 317.452 307.178 314.436L306.937 314.303C302.497 311.866 287.777 303.787 283.271 303.43C280.484 303.205 279.921 305.149 279.455 306.761L279.454 306.762C279.39 306.984 279.328 307.199 279.262 307.402C278.168 310.791 277.768 312.905 278.715 315.711C280.647 321.616 283.89 325.296 288.045 328.431C290.159 330.034 292.528 331.456 295.006 332.913C295.52 333.215 296.041 333.518 296.567 333.824C298.649 335.035 300.82 336.298 303.06 337.724C307.543 340.53 317.128 343.009 327.041 344.977C334.345 346.432 341.629 347.589 346.845 348.417C348.681 348.708 350.261 348.959 351.495 349.168C357.676 350.258 363.244 351.607 368.757 352.942L368.758 352.943L368.761 352.943C376.154 354.734 383.448 356.501 391.986 357.587C393.504 357.783 394.971 358.102 396.389 358.411C397.863 358.732 399.285 359.042 400.659 359.19C403.101 359.445 405.142 359.154 407.11 357.404C408.677 355.947 409.005 354.124 408.568 351.938C408.131 349.678 406.891 347.2 405.47 344.867C402.445 339.583 399.311 335.938 395.885 332.549C394.237 330.901 392.516 329.317 390.695 327.642C388.651 325.762 386.482 323.766 384.15 321.433C380.214 317.497 376.059 314.618 371.832 312.213C368.654 310.366 365.456 308.803 362.314 307.266L362.307 307.263C361.234 306.738 360.169 306.217 359.112 305.689C350.73 301.425 342.712 296.578 337.1 286.228C331.232 275.44 317.711 257.29 303.242 257.181C302.253 257.172 301.275 257.155 300.314 257.138H300.313H300.312H300.311H300.311L300.305 257.138C297.552 257.091 294.93 257.046 292.528 257.181ZM273.471 332.512C274.928 336.154 276.061 340.636 277.269 345.411L277.27 345.414L277.276 345.438C277.638 346.866 278.006 348.321 278.391 349.787C281.999 363.308 283.785 371.216 283.092 385.065C283.049 385.855 283.035 386.619 283.022 387.35C282.957 390.91 282.906 393.715 279.521 395.015C276.423 396.217 267.858 387.944 267.057 386.377C266.702 385.698 264.234 383.43 261.394 380.819L261.394 380.818C257.529 377.266 252.975 373.079 252.114 371.399C251.898 370.966 254.666 366.136 255.937 363.918L255.937 363.918L255.938 363.917C256.166 363.519 256.346 363.205 256.451 363.016C256.742 362.48 257.053 361.931 257.369 361.371L257.371 361.367C257.807 360.597 258.253 359.808 258.674 359.007C259.403 357.55 260.096 355.982 260.497 354.306C261.153 351.536 261.371 349.24 261.371 347.09C261.371 345.081 261.201 343.208 261.025 341.274L261.007 341.076L260.996 340.965C260.635 337.244 260.25 333.289 261.153 327.191L266.546 324.567C269.498 325.332 271.612 328.029 273.434 332.512H273.471ZM242.03 363.417C243.778 359.705 245.348 356.369 247.302 353.113V353.149C249.924 348.746 249.88 343.692 249.829 337.816L249.828 337.806L249.824 337.245C249.821 336.936 249.819 336.625 249.817 336.312C249.708 322.317 235.968 322.973 233.016 324.066C232.324 331.756 230.647 339.154 227.659 346.771C226.369 350.062 225.267 353.587 224.153 357.15C221.898 364.361 219.596 371.725 215.595 377.604C214.83 378.77 209.218 389.558 209.218 389.558C209.218 389.558 209.145 377.932 209.218 376.984C209.375 374.337 210.116 370.127 210.995 365.138L210.995 365.137C211.338 363.188 211.702 361.12 212.06 358.98C214.575 344.038 216.397 327.638 211.222 322.317C208.723 324.385 206.199 325.778 203.716 327.15C200.116 329.139 196.599 331.081 193.364 334.963C187.278 342.252 184.581 353.587 183.743 357.34C183.243 359.535 184.324 362.637 185.371 365.641C186.08 367.676 186.773 369.665 186.95 371.299C187.001 371.629 187.293 372.75 187.737 374.448C189.202 380.058 192.31 391.96 193.765 402.423C195.696 416.454 198.393 429.246 199.56 431.178C203.824 438.211 213.518 432.271 215.705 428.736C221.427 419.078 223.686 409.311 225.8 399.252C226.893 394.186 230.465 385.439 233.271 380.92C235.443 377.412 236.161 375.826 237.135 373.675C237.649 372.541 238.233 371.251 239.139 369.44C240.197 367.31 241.135 365.318 242.027 363.424L242.03 363.418L242.03 363.418L242.03 363.417ZM181.523 263.059C181.596 264.006 181.523 265.027 181.305 266.375C180.831 269.072 179.774 272.68 178.535 276.361C175.947 283.905 172.522 291.85 171.064 294.183C170.04 295.789 168.636 297.688 167.064 299.812C165 302.603 162.647 305.783 160.495 309.198C156.668 315.248 148.942 337.115 148.942 337.115C148.942 337.115 163.811 320.642 165.706 318.309C167.162 316.521 168.291 315.576 169.427 314.625C171.279 313.075 173.152 311.508 176.494 306.246C185.642 291.777 195.372 274.903 200.001 266.084C201.568 278.366 199.309 306.246 198.106 314.3C197.668 317.216 196.211 318.491 194.06 319.73C193.625 319.989 193.174 320.243 192.711 320.503L192.704 320.507L192.701 320.508L192.699 320.51C191.927 320.943 191.124 321.395 190.307 321.917C188.958 322.792 187.537 323.885 186.225 325.416C183.965 328.04 182.435 330.955 181.268 333.835C180.55 335.564 179.956 337.32 179.375 339.036L179.375 339.037L179.375 339.038L179.373 339.042C179.012 340.11 178.657 341.161 178.28 342.18C177.228 345.072 176.323 349.726 175.594 353.47C175.009 356.474 174.539 358.892 174.198 359.346C172.746 361.293 168.119 362.024 162.413 362.926C155.091 364.083 145.991 365.52 139.539 370.17C134.182 374.033 127.184 376.293 119.166 378.115C117.235 378.589 115.376 379.281 113.627 380.047C113.206 380.224 112.787 380.405 112.371 380.583L112.37 380.584L112.367 380.586C111.165 381.103 109.989 381.609 108.853 382.015C105.9 383.071 103.422 383.29 100.762 381.541C96.5706 378.88 96.2426 373.122 98.8302 367.947C100.58 364.412 102.693 361.97 105.026 359.492C105.332 359.177 105.64 358.862 105.95 358.545L105.95 358.545L105.95 358.545C106.859 357.615 107.783 356.671 108.707 355.665C109.982 354.28 111.258 352.786 112.533 351.037C117.142 344.456 119.474 338.306 122.003 331.637C123.634 327.337 125.346 322.822 127.804 317.835C131.339 310.692 141.908 290.866 144.022 288.023C145.006 286.675 145.771 285.144 146.5 283.541C147.192 281.937 147.885 280.224 148.577 278.475C149.962 274.976 151.456 271.514 153.68 268.635C157.944 263.095 165.269 259.196 181.523 263.059ZM25.7854 223.558C23.2609 224.59 20.6215 225.669 17.3045 226.54H17.2681C13.66 227.488 5.53283 233.246 10.9267 237.693C14.3525 240.499 16.7943 242.248 21.0948 242.139C23.3822 242.084 26.9559 242.782 30.5842 243.492C34.1821 244.195 37.8335 244.909 40.3376 244.909C46.679 244.909 56.7378 247.241 66.505 250.375C72.1358 252.169 80.2489 255.538 86.5146 258.139L86.5151 258.14C91.1988 260.084 94.8502 261.601 95.6608 261.71C96.9782 261.871 100.875 262.576 105.716 263.45L105.717 263.45L105.722 263.451C108.513 263.955 111.617 264.516 114.721 265.063C115.081 265.127 115.449 265.193 115.826 265.261L115.837 265.263C124.456 266.813 137.063 269.082 138.739 261.054C142.336 243.787 133.115 242.533 129.546 242.048L129.409 242.03C128.705 241.937 127.943 241.858 127.134 241.775L127.133 241.775L127.132 241.775L127.132 241.775C125.72 241.629 124.165 241.469 122.521 241.191C119.86 240.718 116.908 239.952 113.92 238.421C111.587 237.219 107.542 236.563 102.403 236.235C98.255 235.966 93.5692 235.918 88.8661 235.869C87.8257 235.858 86.7844 235.847 85.7478 235.834C74.8144 235.725 62.8605 235.506 59.5076 231.205L57.904 229.128L60.4916 228.873C68.6566 228.022 75.9466 226.637 82.9235 225.311C86.4102 224.649 89.8187 224.001 93.219 223.443C103.496 221.73 113.81 220.819 125.874 222.714C136.115 224.317 137.244 216.992 135.568 207.808C133.964 199.025 122.338 196.619 112.17 199.462C108.089 200.637 104.277 201.261 100.687 201.849C95.8119 202.647 91.3455 203.378 87.1692 205.33C79.8073 208.755 43.6177 218.887 35.126 220.527C31.5617 221.197 28.7529 222.345 25.7854 223.558ZM197.41 178.689C196.972 178.398 196.426 177.997 195.697 177.414C194.04 176.042 191.891 174.067 189.389 171.767L189.389 171.767C188.699 171.133 187.982 170.474 187.242 169.797C180.354 163.528 171.206 155.547 162.058 151.173C160.762 150.546 157.989 149.517 154.147 148.09L154.147 148.09C144.6 144.545 128.449 138.549 111.947 130.181L106.626 127.484L110.125 132.331C118.798 144.431 128.092 152.084 137.75 158.389C142.601 161.535 147.561 164.336 152.608 167.186C157.268 169.818 162.003 172.492 166.796 175.518C166.577 177.158 165.521 178.106 163.662 178.653C161.402 179.345 158.195 179.382 154.551 179.126C152.988 179.017 151.399 178.868 149.841 178.721C147.764 178.525 145.741 178.335 143.909 178.252C140.847 178.106 137.604 178.179 135.818 179.637C132.538 182.297 124.229 182.917 122.443 180.293C118.871 175.008 114.935 170.926 110.926 167.464C107.758 164.706 104.518 162.326 101.379 160.02C100.619 159.461 99.8642 158.907 99.1182 158.353C91.5377 152.704 85.0505 147.201 81.406 137.033C80.4416 134.345 79.5057 131.76 78.5885 129.227L78.5882 129.226C75.7622 121.421 73.1147 114.109 70.3632 105.8C69.6778 103.81 68.7162 101.629 67.7213 99.372L67.7213 99.3719C66.5474 96.709 65.3271 93.9408 64.4592 91.2581C62.8556 86.338 62.7098 82.402 65.2974 79.8144C66.2085 78.9033 67.557 78.6482 69.5979 79.1584C71.6388 79.6686 74.0806 80.9078 76.6682 82.5478C79.4495 84.3055 82.2821 86.4112 84.8458 88.317L84.8459 88.3171C87.1194 90.0073 89.1815 91.5402 90.8088 92.5337C93.1696 93.9626 95.2716 95.1562 97.2418 96.2749L97.2422 96.2752C98.739 97.1251 100.16 97.9318 101.56 98.7657C104.767 100.661 107.865 102.702 111.509 105.69C118.434 111.23 124.302 114.984 130.315 118.446C132.866 119.908 135.444 121.317 138.147 122.795C141.777 124.78 145.634 126.888 149.959 129.416C154.295 131.925 157.579 134.328 160.749 136.649L160.749 136.649C161.309 137.059 161.865 137.466 162.423 137.871C166.213 140.677 170.04 143.374 175.397 146.144C175.929 146.421 176.536 146.722 177.202 147.053C178.817 147.856 180.779 148.831 182.868 150.044C185.784 151.72 188.882 153.834 191.506 156.494C196.572 161.56 200.034 168.558 197.373 178.653L197.41 178.689Z" fill="white"/>
<path fill-rule="evenodd" clip-rule="evenodd" d="M230.212 117.68C230.977 119.137 231.487 119.757 231.742 119.976L231.815 120.012L232.07 119.684C233.054 118.117 233.965 114.509 235.132 109.625C235.233 109.198 235.335 108.764 235.439 108.324C236.494 103.844 237.697 98.7359 239.323 93.9905C240.045 91.8835 241.011 89.8778 241.949 87.93C243.332 85.0599 244.654 82.3156 245.045 79.5583C245.34 77.3632 242.367 74.4585 238.702 70.8774C235.126 67.3831 230.891 63.2448 228.389 58.4932C220.851 44.2139 212.677 36.2373 207.098 30.7934C204.775 28.526 202.901 26.6979 201.712 25.0369C197.521 19.2786 188.665 13.3017 180.902 10.6048C172.629 7.76208 168.037 9.14698 168.11 14.6501C168.292 28.2805 166.032 38.7766 163.991 47.3776C163.86 47.9247 163.731 48.4635 163.603 48.9944C162.734 52.6008 161.953 55.8444 161.477 58.8941C161.117 61.1464 161.561 68.5023 161.908 74.241C162.088 77.2311 162.242 79.7821 162.242 80.9432C162.279 84.1139 173.576 110.245 175.654 114.472C176.628 116.456 177.206 118.756 177.837 121.266C179.734 128.809 182.108 138.249 197.12 146.726C197.266 144.722 197.666 142.717 198.104 140.749C198.425 139.268 198.807 137.778 199.195 136.266C199.6 134.691 200.01 133.092 200.363 131.456C201.712 125.224 202.186 118.7 198.578 111.265C195.334 104.559 191.216 91.0749 188.92 79.8499C187.79 74.2738 187.061 69.0987 187.207 65.5635C187.227 65.0874 187.189 64.0116 187.143 62.6901C187.025 59.3586 186.851 54.4653 187.425 53.6825C188.052 52.818 188.73 55.1965 189.399 57.5416C189.858 59.1506 190.312 60.744 190.742 61.263C191.843 62.5922 192.34 64.1192 192.92 65.8968C193.913 68.9447 195.146 72.7295 200.072 77.5174C203.444 80.8095 205.519 84.8879 207.51 88.7998C208.229 90.2145 208.938 91.6075 209.693 92.9336C211.845 96.7163 215.151 99.9219 218.142 102.821C219.963 104.587 221.667 106.239 222.923 107.839C223.47 108.53 224.002 109.197 224.513 109.838C225.568 111.16 226.534 112.372 227.369 113.452C228.572 115.056 229.628 116.513 230.212 117.68ZM270.739 70.0105C261.081 75.1856 256.926 81.3812 251.569 91.3307V91.2578C246.284 101.207 247.049 117.243 256.634 118.956C256.969 118.646 257.741 118.337 258.737 117.937C260.673 117.16 263.458 116.044 265.527 113.926C269.718 109.662 273.472 105.726 278.829 98.8747C281.828 95.0542 284.976 90.9147 288.117 86.7848L288.119 86.7816L288.12 86.7809L288.122 86.7789L288.123 86.7776C293.339 79.9185 298.535 73.0865 302.992 67.7873C304.896 65.5378 306.566 62.7914 308.024 60.3933C309.33 58.2457 310.466 56.3775 311.447 55.3961C312.431 54.3756 316.841 50.2574 316.841 50.2574C316.841 50.2574 314.144 61.1544 313.816 62.3935C310.828 73.3998 306.928 85.3537 294.756 104.56C292.931 107.444 290.727 110.542 288.506 113.662C287.977 114.405 287.446 115.151 286.92 115.894C284.223 119.758 281.709 123.511 280.032 126.828C276.643 133.497 277.007 137.032 284.223 137.725C290.528 138.308 308.204 130.873 309.88 125.552C310.609 123.402 312.359 121.252 314.071 119.357C314.702 118.673 315.352 117.998 315.988 117.34C317.079 116.208 318.126 115.122 318.955 114.109C322.636 109.553 324.24 106.164 325.296 102.556C325.862 100.595 326.281 98.557 326.756 96.2491L326.756 96.2488C327.199 94.0945 327.691 91.7053 328.394 88.9253C329.014 86.4835 329.269 84.1875 329.269 81.9279C329.295 80.2759 329.227 78.6805 329.16 77.101L329.159 77.0974C329.133 76.4828 329.107 75.8707 329.087 75.2585C328.941 70.8123 329.05 66.2202 331.601 61.1544C334.954 54.6672 337.87 45.1916 338.198 37.283C338.526 29.1923 336.157 23.9078 330.18 23.4705C322.709 22.9238 305.07 38.0119 303.211 41.6929C297.307 53.2459 289.872 59.9881 283.494 64.0335C280.324 66.038 277.408 67.35 275.148 68.2976C274.408 68.584 273.731 68.8392 273.137 69.0631C272.823 69.181 272.533 69.2903 272.269 69.3909L271.285 69.7554C271.165 69.8156 271.056 69.8647 270.957 69.9089C270.877 69.9449 270.804 69.9777 270.739 70.0105ZM293.989 147.046C290.053 147.957 286.554 148.977 284.003 150.362L284.039 150.289C281.561 151.638 280.322 153.168 280.212 154.954V164.248C296.394 163.628 326.242 152.84 336.082 141.542L338.889 138.299L338.633 142.563C338.05 152.367 327.153 160.312 316.22 166.799C312.825 168.818 309.349 170.743 306.014 172.589L306.012 172.59L306.011 172.591L306.002 172.596C303.864 173.78 301.783 174.932 299.82 176.056C296.248 178.097 293.187 179.992 290.927 181.741C304.922 182.434 334.661 176.019 343.736 169.423C346.651 167.309 349.64 166.106 352.628 165.304C355.243 164.618 357.858 164.225 360.446 163.836L360.466 163.833C360.757 163.789 361.048 163.745 361.339 163.701C366.988 162.826 372.053 161.769 376.463 157.36C380.8 153.023 385.246 149.815 389.656 147.119C393.201 144.962 396.746 143.165 400.271 141.378C401.095 140.96 401.918 140.542 402.74 140.121C403.361 139.805 404.045 139.462 404.776 139.094C413.749 134.587 429.897 126.477 425.044 121.388C421.317 117.48 417.716 116.644 413.55 115.678C412.705 115.482 411.837 115.281 410.94 115.047C407.299 114.097 403.463 113.541 399.334 112.941L399.333 112.941L399.333 112.941C396.807 112.575 394.172 112.192 391.406 111.694C384.189 110.346 364.728 113.261 356.2 115.266C346.141 117.708 335.791 122.081 327.153 127.985C324.639 129.661 323.254 131.702 321.76 133.998C320.994 135.201 320.192 136.367 319.245 137.497C318.261 138.663 317.095 139.793 315.564 140.814C313.159 142.454 309.623 143.547 305.87 144.458C303.829 144.953 301.66 145.405 299.473 145.861L299.472 145.861L299.471 145.862L299.47 145.862L299.469 145.862L299.469 145.862L299.468 145.862L299.467 145.863C297.632 146.245 295.784 146.63 293.989 147.046ZM400.057 201.507L400.058 201.507C401.472 201.895 402.878 202.28 404.271 202.659C410.191 204.306 415.838 205.299 421.341 206.266L421.341 206.266C423.63 206.669 425.894 207.067 428.143 207.506C435.723 208.964 442.976 210.895 450.337 214.941C453.654 216.726 457.007 217.929 460.178 218.95C461.834 219.47 463.551 220.783 465.216 222.057C466.702 223.194 468.148 224.3 469.471 224.781C486.199 230.976 484.814 238.994 478.655 241.509C473.996 245.07 464.988 245.031 460.523 245.011H460.523H460.523H460.522H460.522H460.522H460.521H460.521C459.503 245.007 458.722 245.003 458.282 245.044C455.841 245.263 453.29 245.627 450.52 246.393C446.729 247.413 443.377 248.761 440.242 250.183C438.48 250.971 436.789 251.794 435.121 252.605C433.857 253.221 432.607 253.829 431.35 254.41C425.628 257.071 419.979 259.185 412.581 259.185C403.725 259.185 396.982 260.825 390.349 262.793C389.212 263.129 388.076 263.476 386.93 263.826L386.914 263.831L386.913 263.831L386.912 263.831L386.912 263.831C381.49 265.486 375.85 267.207 368.847 268.259C362.506 269.243 354.779 270.191 348.329 270.191C345.121 270.191 342.315 269.936 340.238 269.389C338.088 268.806 337.067 268.041 336.775 267.275C335.354 263.813 336.958 261.626 339.655 258.383L339.971 257.996L340.012 257.946C340.56 257.278 341.128 256.585 341.696 255.868C342.388 254.957 343.044 253.973 343.591 252.953C344.648 250.948 345.376 248.652 345.304 245.882C347.272 244.097 350.88 243.149 356.128 242.748C360.806 242.414 366.397 242.536 372.561 242.67L372.568 242.67L372.576 242.67C373.801 242.697 375.05 242.724 376.318 242.748C391.698 243.076 395.415 243.04 411.597 236.443C413.747 234.985 429.382 232.544 429.382 232.544C429.382 232.544 420.38 230.211 418.011 229.847C414.658 229.336 405.073 229.446 398.294 229.664C395.508 229.754 394.391 229.855 393.523 229.934C392.269 230.048 391.536 230.115 387.033 230.029C379.416 229.919 372.236 229.373 366.77 227.951C364.022 227.23 361.624 226.664 359.318 226.12L359.317 226.12C354.407 224.962 349.919 223.903 343.372 221.647C342.862 217.747 342.825 201.456 343.554 198.285C344.793 192.892 351.973 191.434 364.182 193.11L364.218 193.147C374.777 194.585 387.74 198.135 400.057 201.507ZM292.528 257.181C289.321 257.327 286.66 257.764 284.583 258.785L284.692 258.821C284.079 259.119 283.519 259.335 283.009 259.532C280.338 260.565 279.04 261.067 278.642 269.973C278.424 274.893 278.897 277.809 281.266 280.178C283.234 282.109 304.19 296.141 308.235 298.218C310.07 299.177 311.742 300.751 313.505 302.411L313.505 302.411C315.559 304.345 317.738 306.396 320.444 307.73C324.928 309.931 329.921 311.716 334.656 313.409C340.505 315.5 345.958 317.449 349.564 319.866C350.548 320.559 358.821 327.192 358.821 327.192C358.821 327.192 350.475 326.208 349.746 326.208C346.83 326.208 341.473 325.078 335.423 323.474C333.75 323.027 332.12 322.598 330.537 322.181C320.641 319.575 312.583 317.452 307.178 314.436L306.937 314.303C302.497 311.866 287.777 303.787 283.271 303.43C280.484 303.205 279.921 305.149 279.455 306.761L279.454 306.762C279.39 306.984 279.328 307.199 279.262 307.402C278.168 310.791 277.768 312.905 278.715 315.711C280.647 321.616 283.89 325.296 288.045 328.431C290.159 330.034 292.528 331.456 295.006 332.913C295.52 333.215 296.041 333.518 296.567 333.824C298.649 335.035 300.82 336.298 303.06 337.724C307.543 340.53 317.128 343.009 327.041 344.977C334.345 346.432 341.629 347.589 346.845 348.417C348.681 348.708 350.261 348.959 351.495 349.168C357.676 350.258 363.244 351.607 368.757 352.942L368.758 352.943L368.761 352.943C376.154 354.734 383.448 356.501 391.986 357.587C393.504 357.783 394.971 358.102 396.389 358.411C397.863 358.732 399.285 359.042 400.659 359.19C403.101 359.445 405.142 359.154 407.11 357.404C408.677 355.947 409.005 354.124 408.568 351.938C408.131 349.678 406.891 347.2 405.47 344.867C402.445 339.583 399.311 335.938 395.885 332.549C394.237 330.901 392.516 329.317 390.695 327.642C388.651 325.762 386.482 323.766 384.15 321.433C380.214 317.497 376.059 314.618 371.832 312.213C368.654 310.366 365.456 308.803 362.314 307.266L362.307 307.263C361.234 306.738 360.169 306.217 359.112 305.689C350.73 301.425 342.712 296.578 337.1 286.228C331.232 275.44 317.711 257.29 303.242 257.181C302.253 257.172 301.275 257.155 300.314 257.138H300.313H300.312H300.311H300.311L300.305 257.138C297.552 257.091 294.93 257.046 292.528 257.181ZM273.471 332.512C274.928 336.154 276.061 340.636 277.269 345.411L277.27 345.414L277.276 345.438C277.638 346.866 278.006 348.321 278.391 349.787C281.999 363.308 283.785 371.216 283.092 385.065C283.049 385.855 283.035 386.619 283.022 387.35C282.957 390.91 282.906 393.715 279.521 395.015C276.423 396.217 267.858 387.944 267.057 386.377C266.702 385.698 264.234 383.43 261.394 380.819L261.394 380.818C257.529 377.266 252.975 373.079 252.114 371.399C251.898 370.966 254.666 366.136 255.937 363.918L255.937 363.918L255.938 363.917C256.166 363.519 256.346 363.205 256.451 363.016C256.742 362.48 257.053 361.931 257.369 361.371L257.371 361.367C257.807 360.597 258.253 359.808 258.674 359.007C259.403 357.55 260.096 355.982 260.497 354.306C261.153 351.536 261.371 349.24 261.371 347.09C261.371 345.081 261.201 343.208 261.025 341.274L261.007 341.076L260.996 340.965C260.635 337.244 260.25 333.289 261.153 327.191L266.546 324.567C269.498 325.332 271.612 328.029 273.434 332.512H273.471ZM242.03 363.417C243.778 359.705 245.348 356.369 247.302 353.113V353.149C249.924 348.746 249.88 343.692 249.829 337.816L249.828 337.806L249.824 337.245C249.821 336.936 249.819 336.625 249.817 336.312C249.708 322.317 235.968 322.973 233.016 324.066C232.324 331.756 230.647 339.154 227.659 346.771C226.369 350.062 225.267 353.587 224.153 357.15C221.898 364.361 219.596 371.725 215.595 377.604C214.83 378.77 209.218 389.558 209.218 389.558C209.218 389.558 209.145 377.932 209.218 376.984C209.375 374.337 210.116 370.127 210.995 365.138L210.995 365.137C211.338 363.188 211.702 361.12 212.06 358.98C214.575 344.038 216.397 327.638 211.222 322.317C208.723 324.385 206.199 325.778 203.716 327.15C200.116 329.139 196.599 331.081 193.364 334.963C187.278 342.252 184.581 353.587 183.743 357.34C183.243 359.535 184.324 362.637 185.371 365.641C186.08 367.676 186.773 369.665 186.95 371.299C187.001 371.629 187.293 372.75 187.737 374.448C189.202 380.058 192.31 391.96 193.765 402.423C195.696 416.454 198.393 429.246 199.56 431.178C203.824 438.211 213.518 432.271 215.705 428.736C221.427 419.078 223.686 409.311 225.8 399.252C226.893 394.186 230.465 385.439 233.271 380.92C235.443 377.412 236.161 375.826 237.135 373.675C237.649 372.541 238.233 371.251 239.139 369.44C240.197 367.31 241.135 365.318 242.027 363.424L242.03 363.418L242.03 363.418L242.03 363.417ZM181.523 263.059C181.596 264.006 181.523 265.027 181.305 266.375C180.831 269.072 179.774 272.68 178.535 276.361C175.947 283.905 172.522 291.85 171.064 294.183C170.04 295.789 168.636 297.688 167.064 299.812C165 302.603 162.647 305.783 160.495 309.198C156.668 315.248 148.942 337.115 148.942 337.115C148.942 337.115 163.811 320.642 165.706 318.309C167.162 316.521 168.291 315.576 169.427 314.625C171.279 313.075 173.152 311.508 176.494 306.246C185.642 291.777 195.372 274.903 200.001 266.084C201.568 278.366 199.309 306.246 198.106 314.3C197.668 317.216 196.211 318.491 194.06 319.73C193.625 319.989 193.174 320.243 192.711 320.503L192.704 320.507L192.701 320.508L192.699 320.51C191.927 320.943 191.124 321.395 190.307 321.917C188.958 322.792 187.537 323.885 186.225 325.416C183.965 328.04 182.435 330.955 181.268 333.835C180.55 335.564 179.956 337.32 179.375 339.036L179.375 339.037L179.375 339.038L179.373 339.042C179.012 340.11 178.657 341.161 178.28 342.18C177.228 345.072 176.323 349.726 175.594 353.47C175.009 356.474 174.539 358.892 174.198 359.346C172.746 361.293 168.119 362.024 162.413 362.926C155.091 364.083 145.991 365.52 139.539 370.17C134.182 374.033 127.184 376.293 119.166 378.115C117.235 378.589 115.376 379.281 113.627 380.047C113.206 380.224 112.787 380.405 112.371 380.583L112.37 380.584L112.367 380.586C111.165 381.103 109.989 381.609 108.853 382.015C105.9 383.071 103.422 383.29 100.762 381.541C96.5706 378.88 96.2426 373.122 98.8302 367.947C100.58 364.412 102.693 361.97 105.026 359.492C105.332 359.177 105.64 358.862 105.95 358.545L105.95 358.545L105.95 358.545C106.859 357.615 107.783 356.671 108.707 355.665C109.982 354.28 111.258 352.786 112.533 351.037C117.142 344.456 119.474 338.306 122.003 331.637C123.634 327.337 125.346 322.822 127.804 317.835C131.339 310.692 141.908 290.866 144.022 288.023C145.006 286.675 145.771 285.144 146.5 283.541C147.192 281.937 147.885 280.224 148.577 278.475C149.962 274.976 151.456 271.514 153.68 268.635C157.944 263.095 165.269 259.196 181.523 263.059ZM25.7854 223.558C23.2609 224.59 20.6215 225.669 17.3045 226.54H17.2681C13.66 227.488 5.53283 233.246 10.9267 237.693C14.3525 240.499 16.7943 242.248 21.0948 242.139C23.3822 242.084 26.9559 242.782 30.5842 243.492C34.1821 244.195 37.8335 244.909 40.3376 244.909C46.679 244.909 56.7378 247.241 66.505 250.375C72.1358 252.169 80.2489 255.538 86.5146 258.139L86.5151 258.14C91.1988 260.084 94.8502 261.601 95.6608 261.71C96.9782 261.871 100.875 262.576 105.716 263.45L105.717 263.45L105.722 263.451C108.513 263.955 111.617 264.516 114.721 265.063C115.081 265.127 115.449 265.193 115.826 265.261L115.837 265.263C124.456 266.813 137.063 269.082 138.739 261.054C142.336 243.787 133.115 242.533 129.546 242.048L129.409 242.03C128.705 241.937 127.943 241.858 127.134 241.775L127.133 241.775L127.132 241.775L127.132 241.775C125.72 241.629 124.165 241.469 122.521 241.191C119.86 240.718 116.908 239.952 113.92 238.421C111.587 237.219 107.542 236.563 102.403 236.235C98.255 235.966 93.5692 235.918 88.8661 235.869C87.8257 235.858 86.7844 235.847 85.7478 235.834C74.8144 235.725 62.8605 235.506 59.5076 231.205L57.904 229.128L60.4916 228.873C68.6566 228.022 75.9466 226.637 82.9235 225.311C86.4102 224.649 89.8187 224.001 93.219 223.443C103.496 221.73 113.81 220.819 125.874 222.714C136.115 224.317 137.244 216.992 135.568 207.808C133.964 199.025 122.338 196.619 112.17 199.462C108.089 200.637 104.277 201.261 100.687 201.849C95.8119 202.647 91.3455 203.378 87.1692 205.33C79.8073 208.755 43.6177 218.887 35.126 220.527C31.5617 221.197 28.7529 222.345 25.7854 223.558ZM197.41 178.689C196.972 178.398 196.426 177.997 195.697 177.414C194.04 176.042 191.891 174.067 189.389 171.767L189.389 171.767C188.699 171.133 187.982 170.474 187.242 169.797C180.354 163.528 171.206 155.547 162.058 151.173C160.762 150.546 157.989 149.517 154.147 148.09L154.147 148.09C144.6 144.545 128.449 138.549 111.947 130.181L106.626 127.484L110.125 132.331C118.798 144.431 128.092 152.084 137.75 158.389C142.601 161.535 147.561 164.336 152.608 167.186C157.268 169.818 162.003 172.492 166.796 175.518C166.577 177.158 165.521 178.106 163.662 178.653C161.402 179.345 158.195 179.382 154.551 179.126C152.988 179.017 151.399 178.868 149.841 178.721C147.764 178.525 145.741 178.335 143.909 178.252C140.847 178.106 137.604 178.179 135.818 179.637C132.538 182.297 124.229 182.917 122.443 180.293C118.871 175.008 114.935 170.926 110.926 167.464C107.758 164.706 104.518 162.326 101.379 160.02C100.619 159.461 99.8642 158.907 99.1182 158.353C91.5377 152.704 85.0505 147.201 81.406 137.033C80.4416 134.345 79.5057 131.76 78.5885 129.227L78.5882 129.226C75.7622 121.421 73.1147 114.109 70.3632 105.8C69.6778 103.81 68.7162 101.629 67.7213 99.372L67.7213 99.3719C66.5474 96.709 65.3271 93.9408 64.4592 91.2581C62.8556 86.338 62.7098 82.402 65.2974 79.8144C66.2085 78.9033 67.557 78.6482 69.5979 79.1584C71.6388 79.6686 74.0806 80.9078 76.6682 82.5478C79.4495 84.3055 82.2821 86.4112 84.8458 88.317L84.8459 88.3171C87.1194 90.0073 89.1815 91.5402 90.8088 92.5337C93.1696 93.9626 95.2716 95.1562 97.2418 96.2749L97.2422 96.2752C98.739 97.1251 100.16 97.9318 101.56 98.7657C104.767 100.661 107.865 102.702 111.509 105.69C118.434 111.23 124.302 114.984 130.315 118.446C132.866 119.908 135.444 121.317 138.147 122.795C141.777 124.78 145.634 126.888 149.959 129.416C154.295 131.925 157.579 134.328 160.749 136.649L160.749 136.649C161.309 137.059 161.865 137.466 162.423 137.871C166.213 140.677 170.04 143.374 175.397 146.144C175.929 146.421 176.536 146.722 177.202 147.053C178.817 147.856 180.779 148.831 182.868 150.044C185.784 151.72 188.882 153.834 191.506 156.494C196.572 161.56 200.034 168.558 197.373 178.653L197.41 178.689Z" fill="white"/>
<path d="M269.129 127.483V190.424H331.923V250.412H269.129V314.409H209.141V250.412H144.998V190.424H209.141V127.483H269.129Z" fill="#E2001A"/>
</svg>
