<svg version="1.2" xmlns="http://www.w3.org/2000/svg" viewBox="0 0 26 26" width="26" height="26">
	<title>draw-polygon_10436024-svg</title>
	<style>
		.s0 { fill: #000000 } 
	</style>
	<path id="Layer" fill-rule="evenodd" class="s0" d="m26 22.7c0 1.8-1.5 3.3-3.3 3.3-1.4 0-2.6-0.9-3-2.2h-13.4c-0.4 1.3-1.6 2.2-3 2.2-1.8 0-3.3-1.5-3.3-3.3 0-1.4 0.9-2.6 2.2-3v-13.4c-1.3-0.4-2.2-1.6-2.2-3 0-1.8 1.5-3.3 3.3-3.3 1.4 0 2.6 0.9 3 2.2h13.4c0.4-1.3 1.6-2.2 3-2.2 1.8 0 3.3 1.5 3.3 3.2 0 1.8-1.5 3.3-3.3 3.3q-0.3 0-0.6-0.1l-4.9 5.6q0.1 0.5 0.1 1 0 0.5-0.1 1l4.9 5.6q0.3-0.1 0.6-0.1c1.8 0 3.3 1.5 3.3 3.2zm-20.3-2.1h12.9l-3.9-4.4q-0.3 0-0.6 0c-1.8 0-3.3-1.4-3.3-3.2 0-1.8 1.5-3.2 3.3-3.2q0.3 0 0.6 0l3.9-4.4h-12.9q-0.2 0.1-0.3 0.3v14.6q0.1 0.2 0.3 0.3z"/>
</svg>